<svg width="20" height="20" viewBox="0 0 20 20" fill="none" xmlns="http://www.w3.org/2000/svg">
<path d="M12.8199 1.4758C12.6543 1.03826 12.5715 0.819487 12.3919 0.695449C12.2123 0.571411 11.9784 0.571411 11.5106 0.571411H8.84116C8.37321 0.571411 8.13924 0.571411 7.95964 0.695493C7.78004 0.819576 7.69727 1.03841 7.53171 1.47609L1.43081 17.6047C1.10522 18.4654 0.942421 18.8958 1.15114 19.1979C1.35986 19.5 1.81999 19.5 2.74025 19.5H17.6156C18.536 19.5 18.9963 19.5 19.205 19.1978C19.4137 18.8956 19.2508 18.4652 18.9249 17.6044L12.8199 1.4758ZM6.62808 15.1251L10.2214 5.94658L13.8146 15.1251H6.62808Z" fill="#EBEDF0"/>
</svg>
