<svg width="24" height="24" viewBox="0 0 24 24" fill="none" xmlns="http://www.w3.org/2000/svg">
<path fill-rule="evenodd" clip-rule="evenodd" d="M3.99414 5.74866C3.99414 5.38968 4.28516 5.09866 4.64414 5.09866L19.3567 5.09866C19.7156 5.09866 20.0067 5.38968 20.0067 5.74866C20.0067 6.10765 19.7156 6.39866 19.3567 6.39866L4.64414 6.39866C4.28516 6.39866 3.99414 6.10765 3.99414 5.74866Z" fill="#74777F"/>
<path fill-rule="evenodd" clip-rule="evenodd" d="M3.99414 18.3649C3.99414 18.0059 4.28516 17.7149 4.64414 17.7149L19.3567 17.7149C19.7156 17.7149 20.0067 18.0059 20.0067 18.3649C20.0067 18.7239 19.7156 19.0149 19.3567 19.0149L4.64414 19.0149C4.28516 19.0149 3.99414 18.7239 3.99414 18.3649Z" fill="#74777F"/>
<path fill-rule="evenodd" clip-rule="evenodd" d="M3.99418 12C3.99418 11.641 4.2852 11.35 4.64418 11.35L19.3567 11.35C19.7157 11.35 20.0067 11.641 20.0067 12C20.0067 12.359 19.7157 12.65 19.3567 12.65L4.64418 12.65C4.2852 12.65 3.99418 12.359 3.99418 12Z" fill="#74777F"/>
</svg>
